# xmcd
#
# Track frame offsets:
#	150
#	17947
#	37442
#	50376
#	67336
#	81301
#	94116
#	110526
#	126971
#	140873
#	157506
#	174766
#	192061
#	209954
#	230084
#	248194
#
# Disc length: 3501 seconds
#
# Revision: 1
# Processed by: cddbd v1.5.2PL0 Copyright (c) Steve Scherf et al.
# Submitted via: audiograbber 1.82.02
#
DISCID=f00dab10
DTITLE=Alan Jackson - 16 Biggest Hits
DYEAR=2007
DGENRE=Country
TTITLE0=Chattahoochee
TTITLE1=Gone Country 
TTITLE2=It Must Be Love 
TTITLE3=Midnight In Montgomery 
TTITLE4=Chasin' That Neon Rainbow 
TTITLE5=Don't Rock The Jukebox 
TTITLE6=Mercury Blues 
TTITLE7=Here In The Real World 
TTITLE8=Pop A Top 
TTITLE9=That'd Be Alright 
TTITLE10=I Don't Even Know Your Name 
TTITLE11=Gone Crazy 
TTITLE12=I'll Go On Loving You 
TTITLE13=Little Man 
TTITLE14=Who's Cheatin' Who 
TTITLE15=Summertime Blues 
EXTD=
EXTT0=
EXTT1=
EXTT2=
EXTT3=
EXTT4=
EXTT5=
EXTT6=
EXTT7=
EXTT8=
EXTT9=
EXTT10=
EXTT11=
EXTT12=
EXTT13=
EXTT14=
EXTT15=
PLAYORDER=
